<svg width="65" height="64" viewBox="0 0 65 64" fill="none" xmlns="http://www.w3.org/2000/svg">
<mask id="mask0_2348_3724" style="mask-type:alpha" maskUnits="userSpaceOnUse" x="0" y="0" width="65" height="64">
<rect x="0.5" width="64" height="64" fill="#333333"/>
</mask>
<g mask="url(#mask0_2348_3724)">
</g>
<g clip-path="url(#clip0_2348_3724)">
<path d="M45.2923 25.6062C45.2923 32.6754 39.5671 38.4062 32.4984 38.4062C32.4984 34.8755 29.6292 32.0062 26.0984 32.0062H19.6923C13.2984 32.0062 6.89844 28.4064 6.89844 19.2062C6.89844 9.80644 13.2984 6.40625 19.6923 6.40625H32.4984C38.8984 6.40625 45.2923 10.3717 45.2923 19.2062V25.6062Z" fill="url(#paint0_linear_2348_3724)"/>
<path d="M48.4673 25.9467C48.2794 34.6062 41.1984 41.6062 32.4985 41.6062H29.2985V38.4062C29.2985 36.6409 27.8608 35.2062 26.0985 35.2062H20.0175C19.8173 36.197 19.6924 37.2563 19.6924 38.4062V44.8062C19.6924 51.8754 25.4293 57.6062 32.4985 57.6062C32.4985 54.0688 35.3678 51.2062 38.8985 51.2062H45.2924C51.6985 51.2062 58.0985 47.6064 58.0985 38.4062C58.0985 30.5783 53.6426 26.9502 48.4673 25.9467Z" fill="url(#paint1_linear_2348_3724)"/>
</g>
<defs>
<linearGradient id="paint0_linear_2348_3724" x1="26.0954" y1="6.40625" x2="26.0954" y2="38.4062" gradientUnits="userSpaceOnUse">
<stop stop-color="#411FC6"/>
<stop offset="0.5" stop-color="#6225CB"/>
<stop offset="1" stop-color="#A4508B"/>
</linearGradient>
<linearGradient id="paint1_linear_2348_3724" x1="38.8955" y1="25.9467" x2="38.8955" y2="57.6062" gradientUnits="userSpaceOnUse">
<stop stop-color="#411FC6"/>
<stop offset="0.5" stop-color="#6225CB"/>
<stop offset="1" stop-color="#A4508B"/>
</linearGradient>
<clipPath id="clip0_2348_3724">
<rect width="51.2" height="51.2" fill="white" transform="translate(6.89844 6.40625)"/>
</clipPath>
</defs>
</svg>
