<svg width="125" height="30" viewBox="0 0 125 30" fill="none" xmlns="http://www.w3.org/2000/svg">
<mask id="mask0_8286_25805" style="mask-type:alpha" maskUnits="userSpaceOnUse" x="0" y="1" width="28" height="28">
<rect y="1" width="28" height="28" fill="#333333"/>
</mask>
<g mask="url(#mask0_8286_25805)">
</g>
<g clip-path="url(#clip0_8286_25805)">
<path d="M19.5966 12.2027C19.5966 15.2955 17.0919 17.8027 13.9993 17.8027C13.9993 16.258 12.744 15.0027 11.1993 15.0027H8.39663C5.59932 15.0027 2.79932 13.4278 2.79932 9.40273C2.79932 5.29032 5.59932 3.80273 8.39663 3.80273H13.9993C16.7993 3.80273 19.5966 5.53761 19.5966 9.40273V12.2027Z" fill="url(#paint0_linear_8286_25805)"/>
<path d="M20.9856 12.3516C20.9034 16.1401 17.8055 19.2026 13.9993 19.2026H12.5993V17.8026C12.5993 17.0303 11.9703 16.4026 11.1993 16.4026H8.53885C8.45126 16.836 8.39661 17.2995 8.39661 17.8026V20.6026C8.39661 23.6954 10.9065 26.2026 13.9993 26.2026C13.9993 24.655 15.2546 23.4026 16.7993 23.4026H19.5966C22.3993 23.4026 25.1993 21.8277 25.1993 17.8026C25.1993 14.3779 23.2498 12.7906 20.9856 12.3516Z" fill="url(#paint1_linear_8286_25805)"/>
</g>
<path d="M46.4318 14.7273C46.4318 16.2945 46.1383 17.6368 45.5511 18.7543C44.9688 19.867 44.1733 20.7192 43.1648 21.3111C42.161 21.9029 41.0223 22.1989 39.7486 22.1989C38.4749 22.1989 37.3338 21.9029 36.3253 21.3111C35.3215 20.7145 34.526 19.8598 33.9389 18.7472C33.3565 17.6297 33.0653 16.2898 33.0653 14.7273C33.0653 13.16 33.3565 11.8201 33.9389 10.7074C34.526 9.58996 35.3215 8.73532 36.3253 8.14347C37.3338 7.55161 38.4749 7.25568 39.7486 7.25568C41.0223 7.25568 42.161 7.55161 43.1648 8.14347C44.1733 8.73532 44.9688 9.58996 45.5511 10.7074C46.1383 11.8201 46.4318 13.16 46.4318 14.7273ZM43.7827 14.7273C43.7827 13.6241 43.6098 12.6937 43.2642 11.9361C42.9233 11.1738 42.4498 10.5985 41.8438 10.2102C41.2377 9.81723 40.5393 9.62074 39.7486 9.62074C38.9579 9.62074 38.2595 9.81723 37.6534 10.2102C37.0473 10.5985 36.5715 11.1738 36.2259 11.9361C35.8849 12.6937 35.7145 13.6241 35.7145 14.7273C35.7145 15.8305 35.8849 16.7633 36.2259 17.5256C36.5715 18.2831 37.0473 18.8584 37.6534 19.2514C38.2595 19.6397 38.9579 19.8338 39.7486 19.8338C40.5393 19.8338 41.2377 19.6397 41.8438 19.2514C42.4498 18.8584 42.9233 18.2831 43.2642 17.5256C43.6098 16.7633 43.7827 15.8305 43.7827 14.7273ZM51.3803 15.608V22H48.8093V11.0909H51.2667V12.9446H51.3945C51.6455 12.3338 52.0456 11.8485 52.5948 11.4886C53.1488 11.1288 53.833 10.9489 54.6474 10.9489C55.4002 10.9489 56.056 11.1098 56.6147 11.4318C57.1781 11.7538 57.6138 12.2202 57.9215 12.831C58.234 13.4418 58.3879 14.1828 58.3832 15.054V22H55.8121V15.4517C55.8121 14.7225 55.6228 14.152 55.244 13.7401C54.8699 13.3281 54.3514 13.1222 53.6886 13.1222C53.2388 13.1222 52.8387 13.2216 52.4883 13.4205C52.1426 13.6146 51.8704 13.8963 51.6715 14.2656C51.4774 14.6349 51.3803 15.0824 51.3803 15.608ZM65.8263 22.2131C64.7326 22.2131 63.788 21.9858 62.9925 21.5312C62.2018 21.072 61.5934 20.4233 61.1673 19.5852C60.7411 18.7424 60.5281 17.7505 60.5281 16.6094C60.5281 15.4872 60.7411 14.5024 61.1673 13.6548C61.5981 12.8026 62.1995 12.1397 62.9712 11.6662C63.743 11.188 64.6497 10.9489 65.6914 10.9489C66.3638 10.9489 66.9982 11.0578 67.5948 11.2756C68.1961 11.4886 68.7264 11.8201 69.1857 12.2699C69.6497 12.7197 70.0143 13.2926 70.2795 13.9886C70.5446 14.6799 70.6772 15.5038 70.6772 16.4602V17.2486H61.7354V15.5156H68.2127C68.208 15.0232 68.1014 14.5852 67.8931 14.2017C67.6848 13.8134 67.3936 13.508 67.0195 13.2855C66.6502 13.063 66.2193 12.9517 65.7269 12.9517C65.2013 12.9517 64.7397 13.0795 64.342 13.3352C63.9442 13.5862 63.6341 13.9176 63.4116 14.3295C63.1938 14.7367 63.0825 15.1842 63.0778 15.6719V17.1847C63.0778 17.8191 63.1938 18.3636 63.4258 18.8182C63.6578 19.268 63.9821 19.6136 64.3988 19.8551C64.8155 20.0919 65.3031 20.2102 65.8619 20.2102C66.2359 20.2102 66.5745 20.1581 66.8775 20.054C67.1805 19.9451 67.4433 19.7865 67.6658 19.5781C67.8884 19.3698 68.0565 19.1117 68.1701 18.804L70.5707 19.0739C70.4192 19.7083 70.1303 20.2623 69.7042 20.7358C69.2828 21.2045 68.743 21.5691 68.0849 21.8295C67.4267 22.0852 66.6739 22.2131 65.8263 22.2131ZM75.6009 7.45455V22H72.9659V7.45455H75.6009ZM80.9116 15.608V22H78.3406V11.0909H80.7979V12.9446H80.9258C81.1767 12.3338 81.5768 11.8485 82.1261 11.4886C82.68 11.1288 83.3642 10.9489 84.1786 10.9489C84.9315 10.9489 85.5872 11.1098 86.146 11.4318C86.7094 11.7538 87.145 12.2202 87.4528 12.831C87.7653 13.4418 87.9192 14.1828 87.9144 15.054V22H85.3434V15.4517C85.3434 14.7225 85.154 14.152 84.7752 13.7401C84.4012 13.3281 83.8827 13.1222 83.2198 13.1222C82.77 13.1222 82.3699 13.2216 82.0195 13.4205C81.6739 13.6146 81.4016 13.8963 81.2028 14.2656C81.0086 14.6349 80.9116 15.0824 80.9116 15.608ZM90.6417 22V7.45455H93.2127V12.8949H93.3192C93.4518 12.6297 93.6388 12.348 93.8803 12.0497C94.1218 11.7467 94.4485 11.4886 94.8604 11.2756C95.2724 11.0578 95.7979 10.9489 96.4371 10.9489C97.2799 10.9489 98.0399 11.1643 98.717 11.5952C99.3988 12.0213 99.9386 12.6534 100.336 13.4915C100.739 14.3248 100.94 15.3475 100.94 16.5597C100.94 17.7576 100.743 18.7756 100.35 19.6136C99.9575 20.4517 99.4225 21.0909 98.7454 21.5312C98.0683 21.9716 97.3013 22.1918 96.4442 22.1918C95.8192 22.1918 95.3008 22.0876 94.8888 21.8793C94.4769 21.6709 94.1455 21.42 93.8945 21.1264C93.6483 20.8281 93.4566 20.5464 93.3192 20.2812H93.1701V22H90.6417ZM93.163 16.5455C93.163 17.2509 93.2624 17.8688 93.4613 18.3991C93.6649 18.9295 93.9561 19.3437 94.3349 19.642C94.7184 19.9356 95.1824 20.0824 95.7269 20.0824C96.2951 20.0824 96.771 19.9309 97.1545 19.6278C97.538 19.3201 97.8268 18.901 98.021 18.3707C98.2198 17.8357 98.3192 17.2273 98.3192 16.5455C98.3192 15.8684 98.2222 15.267 98.0281 14.7415C97.8339 14.2159 97.5451 13.804 97.1616 13.5057C96.7781 13.2074 96.2998 13.0582 95.7269 13.0582C95.1777 13.0582 94.7113 13.2027 94.3278 13.4915C93.9442 13.7803 93.6531 14.1851 93.4542 14.706C93.2601 15.2268 93.163 15.84 93.163 16.5455ZM107.884 22.2131C106.819 22.2131 105.896 21.9787 105.114 21.5099C104.333 21.0412 103.727 20.3854 103.296 19.5426C102.87 18.6998 102.657 17.715 102.657 16.5881C102.657 15.4612 102.87 14.474 103.296 13.6264C103.727 12.7789 104.333 12.1207 105.114 11.652C105.896 11.1832 106.819 10.9489 107.884 10.9489C108.95 10.9489 109.873 11.1832 110.654 11.652C111.435 12.1207 112.039 12.7789 112.465 13.6264C112.896 14.474 113.112 15.4612 113.112 16.5881C113.112 17.715 112.896 18.6998 112.465 19.5426C112.039 20.3854 111.435 21.0412 110.654 21.5099C109.873 21.9787 108.95 22.2131 107.884 22.2131ZM107.898 20.1534C108.476 20.1534 108.959 19.9948 109.347 19.6776C109.736 19.3556 110.024 18.9247 110.214 18.3849C110.408 17.8452 110.505 17.2438 110.505 16.581C110.505 15.9134 110.408 15.3097 110.214 14.7699C110.024 14.2254 109.736 13.7921 109.347 13.4702C108.959 13.1482 108.476 12.9872 107.898 12.9872C107.307 12.9872 106.814 13.1482 106.421 13.4702C106.033 13.7921 105.742 14.2254 105.548 14.7699C105.358 15.3097 105.263 15.9134 105.263 16.581C105.263 17.2438 105.358 17.8452 105.548 18.3849C105.742 18.9247 106.033 19.3556 106.421 19.6776C106.814 19.9948 107.307 20.1534 107.898 20.1534ZM116.986 11.0909L119.188 15.1179L121.425 11.0909H124.145L120.857 16.5455L124.202 22H121.496L119.188 18.0724L116.901 22H114.173L117.497 16.5455L114.259 11.0909H116.986Z" fill="url(#paint2_linear_8286_25805)"/>
<defs>
<linearGradient id="paint0_linear_8286_25805" x1="11.198" y1="3.80273" x2="11.198" y2="17.8027" gradientUnits="userSpaceOnUse">
<stop offset="0.5" stop-color="#6B21A8"/>
<stop offset="1" stop-color="#D61F69"/>
</linearGradient>
<linearGradient id="paint1_linear_8286_25805" x1="16.798" y1="12.3516" x2="16.798" y2="26.2026" gradientUnits="userSpaceOnUse">
<stop offset="0.5" stop-color="#6B21A8"/>
<stop offset="1" stop-color="#D61F69"/>
</linearGradient>
<linearGradient id="paint2_linear_8286_25805" x1="32" y1="15" x2="125" y2="15" gradientUnits="userSpaceOnUse">
<stop stop-color="#5521B5"/>
<stop offset="1" stop-color="#D61F69"/>
</linearGradient>
<clipPath id="clip0_8286_25805">
<rect width="22.4" height="22.4" fill="white" transform="translate(2.79932 3.80273)"/>
</clipPath>
</defs>
</svg>
